<svg width="60" height="60" viewBox="0 0 60 60" fill="none" xmlns="http://www.w3.org/2000/svg">
<circle cx="30" cy="30" r="30" fill="#DBDBDB"/>
<path d="M42.2625 19.925C40.625 24.0125 36.8875 29.35 33.325 32.8375C32.8125 29.6125 30.2375 27.0875 26.9875 26.6375C30.4875 23.0625 35.8625 19.275 39.9625 17.625C40.6875 17.35 41.4125 17.5625 41.8625 18.0125C42.3375 18.4875 42.5625 19.2 42.2625 19.925Z" fill="#292D32"/>
<path d="M32.225 33.8625C31.975 34.075 31.725 34.2875 31.475 34.4875L29.2375 36.275C29.2375 36.2375 29.225 36.1875 29.225 36.1375C29.05 34.8 28.425 33.5625 27.4125 32.55C26.3875 31.525 25.1125 30.9 23.7125 30.725C23.675 30.725 23.625 30.7125 23.5875 30.7125L25.4 28.425C25.575 28.2 25.7625 27.9875 25.9625 27.7625L26.8125 27.875C29.5 28.25 31.6625 30.3625 32.0875 33.0375L32.225 33.8625Z" fill="#292D32"/>
<path d="M28.0375 37.025C28.0375 38.4 27.5125 39.7125 26.5125 40.7C25.75 41.475 24.725 42 23.475 42.15L20.4125 42.4875C18.7375 42.675 17.3 41.2375 17.4875 39.55L17.825 36.475C18.125 33.7375 20.4125 31.9875 22.8375 31.9375C23.075 31.925 23.3375 31.9375 23.5875 31.9625C24.65 32.1 25.675 32.5875 26.5375 33.4375C27.375 34.275 27.85 35.2625 27.9875 36.3C28.0125 36.55 28.0375 36.7875 28.0375 37.025Z" fill="#292D32"/>
</svg>
