<svg width="164" height="141" viewBox="0 0 164 141" fill="none" xmlns="http://www.w3.org/2000/svg">
<path d="M3.69953 124.12C4.63286 124.12 5.46353 123.831 6.19153 123.252C6.91953 122.655 7.39553 121.777 7.61953 120.62H3.97953V116.7H7.75953V115.16H13.0235V116.7H16.7755V120.62H13.1355C13.3595 121.777 13.8355 122.655 14.5635 123.252C15.2915 123.831 16.1222 124.12 17.0555 124.12L15.9355 128.32C14.8902 128.32 13.8822 128.124 12.9115 127.732C11.9595 127.321 11.1195 126.743 10.3915 125.996C9.64486 126.743 8.7862 127.321 7.81553 127.732C6.86353 128.124 5.86486 128.32 4.81953 128.32L3.69953 124.12ZM18.3155 115.664H23.5795V137H18.3155V115.664ZM12.8555 128.88V131.96H17.4755V136.16H3.69953V131.96H7.81553V128.88H12.8555ZM41.2777 120.2V128.6H46.2617L46.5417 116H27.5017V120.2H41.2777ZM37.6097 131.96V124.4H32.3457V131.96H26.9417V136.16H47.1017V131.96H37.6097ZM64.8493 115.72V137H70.1133V115.72H64.8493ZM56.8413 115.944C52.772 115.944 50.7373 118.072 50.7373 122.328V124.176C50.7373 128.432 52.772 130.56 56.8413 130.56C58.8947 130.56 60.4347 130.028 61.4613 128.964C62.488 127.881 63.0013 126.285 63.0013 124.176V122.328C63.0013 120.219 62.488 118.632 61.4613 117.568C60.4347 116.485 58.8947 115.944 56.8413 115.944ZM56.8413 120.144C57.532 120.144 57.8773 120.499 57.8773 121.208V125.296C57.8773 126.005 57.532 126.36 56.8413 126.36C56.1507 126.36 55.8053 126.005 55.8053 125.296V121.208C55.8053 120.499 56.1507 120.144 56.8413 120.144ZM50.4573 131.96V136.16H64.0093V131.96H50.4573ZM96.2393 119.948V121.824H101.195L101.475 116.028H82.4353V119.948H96.2393ZM81.8753 123.028V126.92H102.035V123.028H81.8753ZM101.475 137V128.04H96.2393V129.216H87.6993V128.04H82.4353V137H101.475ZM96.2393 132.576V133.64H87.6993V132.576H96.2393ZM119.727 115.72H124.991V127.76H119.727V115.72ZM111.523 125.436C110.776 126.183 109.918 126.761 108.947 127.172C107.995 127.564 106.996 127.76 105.951 127.76L104.831 123.56C105.97 123.56 106.931 123.149 107.715 122.328C108.499 121.488 108.891 120.247 108.891 118.604V116H114.127V118.604C114.127 120.247 114.519 121.488 115.303 122.328C116.087 123.149 117.048 123.56 118.187 123.56L117.067 127.76C116.022 127.76 115.014 127.564 114.043 127.172C113.091 126.761 112.251 126.183 111.523 125.436ZM105.951 133.22V129.02H124.991V137H119.727V133.22H105.951ZM147.96 120.48C147.96 119.099 147.53 117.988 146.672 117.148C145.813 116.308 144.684 115.888 143.284 115.888H133.596C132.196 115.888 131.066 116.308 130.208 117.148C129.349 117.988 128.92 119.099 128.92 120.48C128.92 121.861 129.349 122.972 130.208 123.812C131.066 124.652 132.196 125.072 133.596 125.072H143.284C144.684 125.072 145.813 124.652 146.672 123.812C147.53 122.972 147.96 121.861 147.96 120.48ZM134.856 121.124C134.669 121.124 134.51 121.059 134.38 120.928C134.249 120.797 134.184 120.639 134.184 120.452C134.184 120.265 134.24 120.116 134.352 120.004C134.482 119.873 134.65 119.808 134.856 119.808H142.024C142.229 119.808 142.388 119.873 142.5 120.004C142.63 120.116 142.696 120.265 142.696 120.452C142.696 120.639 142.63 120.797 142.5 120.928C142.388 121.059 142.229 121.124 142.024 121.124H134.856ZM148.52 126.108H128.36V130.056H148.52V126.108ZM134.184 132.8V131.176H128.92V137H147.96V132.8H134.184ZM155.515 132.016C156.262 132.016 156.878 132.259 157.363 132.744C157.867 133.229 158.119 133.864 158.119 134.648C158.119 135.432 157.867 136.067 157.363 136.552C156.878 137.037 156.262 137.28 155.515 137.28C154.769 137.28 154.143 137.028 153.639 136.524C153.135 136.02 152.883 135.395 152.883 134.648C152.883 133.864 153.135 133.229 153.639 132.744C154.143 132.259 154.769 132.016 155.515 132.016ZM161.423 120.956C161.423 121.628 161.377 122.235 161.283 122.776C161.209 123.317 161.078 123.831 160.891 124.316C160.723 124.801 160.49 125.287 160.191 125.772C159.911 126.239 159.575 126.743 159.183 127.284C158.679 127.956 158.306 128.535 158.063 129.02C157.821 129.487 157.699 130.047 157.699 130.7H153.219C153.219 130.065 153.257 129.505 153.331 129.02C153.425 128.516 153.546 128.049 153.695 127.62C153.863 127.191 154.069 126.78 154.311 126.388C154.554 125.996 154.825 125.585 155.123 125.156C155.403 124.764 155.637 124.409 155.823 124.092C156.01 123.775 156.169 123.467 156.299 123.168C156.43 122.851 156.523 122.524 156.579 122.188C156.635 121.852 156.663 121.479 156.663 121.068V121.04C156.663 120.667 156.467 120.48 156.075 120.48C155.702 120.48 155.515 120.667 155.515 121.04V122.552L151.035 122.832L150.755 120.956C150.755 119.388 151.222 118.175 152.155 117.316C153.089 116.439 154.395 116 156.075 116C157.774 116 159.09 116.439 160.023 117.316C160.957 118.175 161.423 119.388 161.423 120.956Z" fill="#4E4D4D"/>
<path d="M39.808 0.359997H51.2V49H39.808V29.16H37.824V48.36H26.432V0.359997H37.824V19.56H39.808V0.359997ZM15.808 10.6V36.84H24.128V46.44H3.84V0.999996H22.912V10.6H15.808ZM81.9425 10.344C79.5958 12.008 76.6518 13.3093 73.1105 14.248C69.6118 15.144 65.7292 15.592 61.4625 15.592L59.5425 8.552C64.2358 8.552 68.0758 7.80533 71.0625 6.312C74.0918 4.776 75.7132 2.74933 75.9265 0.231998H87.9585C88.1718 2.74933 89.7718 4.776 92.7585 6.312C95.7878 7.80533 99.6492 8.552 104.343 8.552L102.423 15.592C98.1558 15.592 94.2518 15.144 90.7105 14.248C87.2118 13.3093 84.2892 12.008 81.9425 10.344ZM105.111 24.552H97.5585V26.408H103.831V40.872H72.2145V42.664H104.471V49H60.1825V34.536H91.7985V32.68H60.1825V26.408H66.3265V24.552H58.9025V17.576H105.111V24.552ZM85.5265 26.408V24.552H78.3585V26.408H85.5265ZM148.746 0.359997H160.138V28.008H148.746V19.752H146.25V28.008H134.986V0.359997H146.25V10.088H148.746V0.359997ZM133.002 20.904V28.008H112.778V10.984H121.61V7.976H112.778V0.871998H132.362V17.896H123.53V20.904H133.002ZM150.09 29.8C153.034 29.8 155.444 30.696 157.322 32.488C159.199 34.28 160.138 36.584 160.138 39.4C160.138 42.216 159.199 44.52 157.322 46.312C155.444 48.104 153.034 49 150.09 49H126.666C123.722 49 121.311 48.104 119.434 46.312C117.556 44.52 116.618 42.216 116.618 39.4C116.618 36.584 117.556 34.28 119.434 32.488C121.311 30.696 123.722 29.8 126.666 29.8H150.09ZM146.89 40.616C147.231 40.616 147.508 40.5093 147.722 40.296C147.978 40.04 148.106 39.7413 148.106 39.4C148.106 39.0587 147.978 38.7813 147.722 38.568C147.508 38.312 147.231 38.184 146.89 38.184H129.866C129.524 38.184 129.226 38.312 128.97 38.568C128.756 38.7813 128.65 39.0587 128.65 39.4C128.65 39.7413 128.756 40.04 128.97 40.296C129.226 40.5093 129.524 40.616 129.866 40.616H146.89ZM50.64 58.36H38.608V107H50.64V86.456H55.44V76.856H50.64V58.36ZM6.48 105.08C11.728 105.08 16.3573 103.587 20.368 100.6C24.4213 97.6133 27.5573 93.368 29.776 87.864C32.0373 82.3173 33.168 75.8533 33.168 68.472V58.872H5.84V68.472H21.136C21.136 75.0853 20.2827 80.4187 18.576 84.472C16.8693 88.4827 14.8 91.32 12.368 92.984C9.936 94.648 7.54667 95.48 5.2 95.48L6.48 105.08ZM92.1735 58.36V107H104.206V58.36H92.1735ZM73.6135 58.872C68.9202 58.872 65.3575 60.1093 62.9255 62.584C60.4935 65.0587 59.2775 68.6853 59.2775 73.464V90.488C59.2775 95.2667 60.4935 98.8933 62.9255 101.368C65.3575 103.843 68.9202 105.08 73.6135 105.08C78.3068 105.08 81.8695 103.843 84.3015 101.368C86.7335 98.8933 87.9495 95.2667 87.9495 90.488V73.464C87.9495 68.6853 86.7335 65.0587 84.3015 62.584C81.8695 60.1093 78.3068 58.872 73.6135 58.872ZM73.6135 68.472C75.1922 68.472 75.9815 69.2827 75.9815 70.904V93.048C75.9815 94.6693 75.1922 95.48 73.6135 95.48C72.0348 95.48 71.2455 94.6693 71.2455 93.048V70.904C71.2455 69.2827 72.0348 68.472 73.6135 68.472ZM125.215 77.496V68.472H156.895V58.872H113.183V87.096H156.895V77.496H125.215ZM111.903 95.48V105.08H158.175V95.48H111.903Z" fill="#4E4D4D"/>
</svg>
