<svg width="25" height="24" viewBox="0 0 25 24" fill="none" xmlns="http://www.w3.org/2000/svg">
<path d="M0 6.36052C0 5.53705 0.939609 5.06651 1.599 5.55977L5.04061 8.13428C5.47971 8.46274 6.10141 8.37633 6.43429 7.94057L11.7053 1.0403C12.1056 0.516351 12.8944 0.51635 13.2947 1.0403L18.5657 7.94057C18.8986 8.37633 19.5203 8.46274 19.9594 8.13428L23.401 5.55977C24.0604 5.06651 25 5.53705 25 6.36052V16.4545C25 17.0068 24.5523 17.4545 24 17.4545H1C0.447716 17.4545 0 17.0068 0 16.4545V6.36052Z" fill="black"/>
<path d="M0 19.2H25V23C25 23.5523 24.5523 24 24 24H1C0.447716 24 0 23.5523 0 23V19.2Z" fill="black"/>
</svg>
