<svg width="35" height="35" viewBox="0 0 35 35" fill="none" xmlns="http://www.w3.org/2000/svg">
<path d="M18.7614 4.36951C18.1993 3.40096 16.8006 3.40096 16.2386 4.36951L12.2806 11.1906C12.003 11.669 11.5231 11.9956 10.9762 12.0782L3.55864 13.1985C2.31281 13.3867 1.87581 14.9596 2.84605 15.7635L8.3718 20.3415C8.8833 20.7653 9.12381 21.4337 8.99956 22.0862L7.5541 29.6771C7.32561 30.877 8.5853 31.8094 9.66614 31.2402L16.6507 27.5626C17.1823 27.2827 17.8177 27.2827 18.3493 27.5626L25.3339 31.2402C26.4147 31.8094 27.6744 30.877 27.4459 29.6771L26.0004 22.0862C25.8762 21.4337 26.1167 20.7653 26.6282 20.3415L32.1539 15.7635C33.1242 14.9596 32.6872 13.3867 31.4413 13.1985L24.0238 12.0782C23.4768 11.9956 22.997 11.669 22.7194 11.1906L18.7614 4.36951Z" fill="#EEEEEE"/>
</svg>
