<svg width="106" height="16" viewBox="0 0 106 16" fill="none" xmlns="http://www.w3.org/2000/svg">
<path d="M11.817 0.799999H15.377V16H11.817V9.8H11.197V15.8H7.63695V0.799999H11.197V6.8H11.817V0.799999ZM4.31695 4V12.2H6.91695V15.2H0.576953V0.999999H6.53695V4H4.31695ZM24.984 3.92C24.2507 4.44 23.3307 4.84667 22.224 5.14C21.1307 5.42 19.9173 5.56 18.584 5.56L17.984 3.36C19.4507 3.36 20.6507 3.12667 21.584 2.66C22.5307 2.18 23.0373 1.54667 23.104 0.76H26.864C26.9307 1.54667 27.4307 2.18 28.364 2.66C29.3107 3.12667 30.5173 3.36 31.984 3.36L31.384 5.56C30.0507 5.56 28.8307 5.42 27.724 5.14C26.6307 4.84667 25.7173 4.44 24.984 3.92ZM32.224 8.36H29.864V8.94H31.824V13.46H21.944V14.02H32.024V16H18.184V11.48H28.064V10.9H18.184V8.94H20.104V8.36H17.784V6.18H32.224V8.36ZM26.104 8.94V8.36H23.864V8.94H26.104ZM45.8599 0.799999H49.4199V9.44H45.8599V6.86H45.0799V9.44H41.5599V0.799999H45.0799V3.84H45.8599V0.799999ZM40.9399 7.22V9.44H34.6199V4.12H37.3799V3.18H34.6199V0.959999H40.7399V6.28H37.9799V7.22H40.9399ZM46.2799 10C47.1999 10 47.9533 10.28 48.5399 10.84C49.1266 11.4 49.4199 12.12 49.4199 13C49.4199 13.88 49.1266 14.6 48.5399 15.16C47.9533 15.72 47.1999 16 46.2799 16H38.9599C38.0399 16 37.2866 15.72 36.6999 15.16C36.1133 14.6 35.8199 13.88 35.8199 13C35.8199 12.12 36.1133 11.4 36.6999 10.84C37.2866 10.28 38.0399 10 38.9599 10H46.2799ZM45.2799 13.38C45.3866 13.38 45.4733 13.3467 45.5399 13.28C45.6199 13.2 45.6599 13.1067 45.6599 13C45.6599 12.8933 45.6199 12.8067 45.5399 12.74C45.4733 12.66 45.3866 12.62 45.2799 12.62H39.9599C39.8533 12.62 39.7599 12.66 39.6799 12.74C39.6133 12.8067 39.5799 12.8933 39.5799 13C39.5799 13.1067 39.6133 13.2 39.6799 13.28C39.7599 13.3467 39.8533 13.38 39.9599 13.38H45.2799ZM71.823 0.799999V6.58H73.323V9.58H71.823V16H68.063V0.799999H71.823ZM58.023 15.4L57.623 12.4C58.3564 12.4 59.103 12.14 59.863 11.62C60.623 11.1 61.2697 10.2133 61.803 8.96C62.3364 7.69333 62.603 6.02667 62.603 3.96H57.823V0.959999H66.363V3.96C66.363 6.26667 66.0097 8.28667 65.303 10.02C64.6097 11.74 63.6297 13.0667 62.363 14C61.1097 14.9333 59.663 15.4 58.023 15.4ZM84.8023 0.799999H88.5623V16H84.8023V0.799999ZM79.0023 0.959999C80.4689 0.959999 81.5823 1.34667 82.3423 2.12C83.1023 2.89333 83.4823 4.02667 83.4823 5.52V10.84C83.4823 12.3333 83.1023 13.4667 82.3423 14.24C81.5823 15.0133 80.4689 15.4 79.0023 15.4C77.5356 15.4 76.4223 15.0133 75.6623 14.24C74.9023 13.4667 74.5223 12.3333 74.5223 10.84V5.52C74.5223 4.02667 74.9023 2.89333 75.6623 2.12C76.4223 1.34667 77.5356 0.959999 79.0023 0.959999ZM79.0023 3.96C78.5089 3.96 78.2623 4.21333 78.2623 4.72V11.64C78.2623 12.1467 78.5089 12.4 79.0023 12.4C79.4956 12.4 79.7423 12.1467 79.7423 11.64V4.72C79.7423 4.21333 79.4956 3.96 79.0023 3.96ZM95.1276 6.78H105.028V9.78H91.3676V0.959999H105.028V3.96H95.1276V6.78ZM90.9676 12.4H105.428V15.4H90.9676V12.4Z" fill="#4E4D4D"/>
</svg>
