<svg width="164" height="141" viewBox="0 0 164 141" fill="none" xmlns="http://www.w3.org/2000/svg">
<path d="M10.6428 128.292C9.39215 128.292 8.29081 128.04 7.33881 127.536C6.38681 127.013 5.64948 126.285 5.12681 125.352C4.60415 124.419 4.34281 123.336 4.34281 122.104C4.34281 120.891 4.60415 119.817 5.12681 118.884C5.64948 117.951 6.38681 117.232 7.33881 116.728C8.29081 116.205 9.39215 115.944 10.6428 115.944H17.6428C18.8935 115.944 19.9948 116.205 20.9468 116.728C21.8988 117.232 22.6361 117.951 23.1588 118.884C23.6815 119.817 23.9428 120.891 23.9428 122.104C23.9428 123.336 23.6815 124.419 23.1588 125.352C22.6361 126.285 21.8988 127.013 20.9468 127.536C19.9948 128.04 18.8935 128.292 17.6428 128.292H10.6428ZM11.5948 120.172C10.9975 120.172 10.5121 120.349 10.1388 120.704C9.78415 121.059 9.60681 121.535 9.60681 122.132C9.60681 122.729 9.78415 123.205 10.1388 123.56C10.5121 123.915 10.9975 124.092 11.5948 124.092H16.6908C17.2881 124.092 17.7641 123.915 18.1188 123.56C18.4921 123.205 18.6788 122.729 18.6788 122.132C18.6788 121.535 18.4921 121.059 18.1188 120.704C17.7641 120.349 17.2881 120.172 16.6908 120.172H11.5948ZM16.8028 131.96H24.2228V136.16H4.06281V131.96H11.4828V129.16H16.8028V131.96ZM33.6824 117.904V116H28.1384V121.264H47.1784V117.904H33.6824ZM27.5784 125.24H47.7384V122.104H27.5784V125.24ZM47.1784 133.08V126.08H28.1384V129.16H41.9424V130H28.1384V137H47.4584V133.92H33.1224V133.08H47.1784ZM65.4861 115.72V137H70.7501V115.72H65.4861ZM57.4781 115.944C53.4087 115.944 51.3741 118.072 51.3741 122.328V124.176C51.3741 128.432 53.4087 130.56 57.4781 130.56C59.5314 130.56 61.0714 130.028 62.0981 128.964C63.1247 127.881 63.6381 126.285 63.6381 124.176V122.328C63.6381 120.219 63.1247 118.632 62.0981 117.568C61.0714 116.485 59.5314 115.944 57.4781 115.944ZM57.4781 120.144C58.1687 120.144 58.5141 120.499 58.5141 121.208V125.296C58.5141 126.005 58.1687 126.36 57.4781 126.36C56.7874 126.36 56.4421 126.005 56.4421 125.296V121.208C56.4421 120.499 56.7874 120.144 57.4781 120.144ZM51.0941 131.96V136.16H64.6461V131.96H51.0941ZM96.876 119.948V121.824H101.832L102.112 116.028H83.072V119.948H96.876ZM82.512 123.028V126.92H102.672V123.028H82.512ZM102.112 137V128.04H96.876V129.216H88.336V128.04H83.072V137H102.112ZM96.876 132.576V133.64H88.336V132.576H96.876ZM120.364 115.72H125.628V127.76H120.364V115.72ZM112.16 125.436C111.413 126.183 110.554 126.761 109.584 127.172C108.632 127.564 107.633 127.76 106.588 127.76L105.468 123.56C106.606 123.56 107.568 123.149 108.352 122.328C109.136 121.488 109.528 120.247 109.528 118.604V116H114.764V118.604C114.764 120.247 115.156 121.488 115.94 122.328C116.724 123.149 117.685 123.56 118.824 123.56L117.704 127.76C116.658 127.76 115.65 127.564 114.68 127.172C113.728 126.761 112.888 126.183 112.16 125.436ZM106.588 133.22V129.02H125.628V137H120.364V133.22H106.588ZM148.596 120.48C148.596 119.099 148.167 117.988 147.308 117.148C146.45 116.308 145.32 115.888 143.92 115.888H134.232C132.832 115.888 131.703 116.308 130.844 117.148C129.986 117.988 129.556 119.099 129.556 120.48C129.556 121.861 129.986 122.972 130.844 123.812C131.703 124.652 132.832 125.072 134.232 125.072H143.92C145.32 125.072 146.45 124.652 147.308 123.812C148.167 122.972 148.596 121.861 148.596 120.48ZM135.492 121.124C135.306 121.124 135.147 121.059 135.016 120.928C134.886 120.797 134.82 120.639 134.82 120.452C134.82 120.265 134.876 120.116 134.988 120.004C135.119 119.873 135.287 119.808 135.492 119.808H142.66C142.866 119.808 143.024 119.873 143.136 120.004C143.267 120.116 143.332 120.265 143.332 120.452C143.332 120.639 143.267 120.797 143.136 120.928C143.024 121.059 142.866 121.124 142.66 121.124H135.492ZM149.156 126.108H128.996V130.056H149.156V126.108ZM134.82 132.8V131.176H129.556V137H148.596V132.8H134.82ZM156.152 132.016C156.899 132.016 157.515 132.259 158 132.744C158.504 133.229 158.756 133.864 158.756 134.648C158.756 135.432 158.504 136.067 158 136.552C157.515 137.037 156.899 137.28 156.152 137.28C155.405 137.28 154.78 137.028 154.276 136.524C153.772 136.02 153.52 135.395 153.52 134.648C153.52 133.864 153.772 133.229 154.276 132.744C154.78 132.259 155.405 132.016 156.152 132.016ZM162.06 120.956C162.06 121.628 162.013 122.235 161.92 122.776C161.845 123.317 161.715 123.831 161.528 124.316C161.36 124.801 161.127 125.287 160.828 125.772C160.548 126.239 160.212 126.743 159.82 127.284C159.316 127.956 158.943 128.535 158.7 129.02C158.457 129.487 158.336 130.047 158.336 130.7H153.856C153.856 130.065 153.893 129.505 153.968 129.02C154.061 128.516 154.183 128.049 154.332 127.62C154.5 127.191 154.705 126.78 154.948 126.388C155.191 125.996 155.461 125.585 155.76 125.156C156.04 124.764 156.273 124.409 156.46 124.092C156.647 123.775 156.805 123.467 156.936 123.168C157.067 122.851 157.16 122.524 157.216 122.188C157.272 121.852 157.3 121.479 157.3 121.068V121.04C157.3 120.667 157.104 120.48 156.712 120.48C156.339 120.48 156.152 120.667 156.152 121.04V122.552L151.672 122.832L151.392 120.956C151.392 119.388 151.859 118.175 152.792 117.316C153.725 116.439 155.032 116 156.712 116C158.411 116 159.727 116.439 160.66 117.316C161.593 118.175 162.06 119.388 162.06 120.956Z" fill="#4E4D4D"/>
<path d="M39.808 0.359997H51.2V49H39.808V29.16H37.824V48.36H26.432V0.359997H37.824V19.56H39.808V0.359997ZM15.808 10.6V36.84H24.128V46.44H3.84V0.999996H22.912V10.6H15.808ZM81.9425 10.344C79.5958 12.008 76.6518 13.3093 73.1105 14.248C69.6118 15.144 65.7292 15.592 61.4625 15.592L59.5425 8.552C64.2358 8.552 68.0758 7.80533 71.0625 6.312C74.0918 4.776 75.7132 2.74933 75.9265 0.231998H87.9585C88.1718 2.74933 89.7718 4.776 92.7585 6.312C95.7878 7.80533 99.6492 8.552 104.343 8.552L102.423 15.592C98.1558 15.592 94.2518 15.144 90.7105 14.248C87.2118 13.3093 84.2892 12.008 81.9425 10.344ZM105.111 24.552H97.5585V26.408H103.831V40.872H72.2145V42.664H104.471V49H60.1825V34.536H91.7985V32.68H60.1825V26.408H66.3265V24.552H58.9025V17.576H105.111V24.552ZM85.5265 26.408V24.552H78.3585V26.408H85.5265ZM148.746 0.359997H160.138V28.008H148.746V19.752H146.25V28.008H134.986V0.359997H146.25V10.088H148.746V0.359997ZM133.002 20.904V28.008H112.778V10.984H121.61V7.976H112.778V0.871998H132.362V17.896H123.53V20.904H133.002ZM150.09 29.8C153.034 29.8 155.444 30.696 157.322 32.488C159.199 34.28 160.138 36.584 160.138 39.4C160.138 42.216 159.199 44.52 157.322 46.312C155.444 48.104 153.034 49 150.09 49H126.666C123.722 49 121.311 48.104 119.434 46.312C117.556 44.52 116.618 42.216 116.618 39.4C116.618 36.584 117.556 34.28 119.434 32.488C121.311 30.696 123.722 29.8 126.666 29.8H150.09ZM146.89 40.616C147.231 40.616 147.508 40.5093 147.722 40.296C147.978 40.04 148.106 39.7413 148.106 39.4C148.106 39.0587 147.978 38.7813 147.722 38.568C147.508 38.312 147.231 38.184 146.89 38.184H129.866C129.524 38.184 129.226 38.312 128.97 38.568C128.756 38.7813 128.65 39.0587 128.65 39.4C128.65 39.7413 128.756 40.04 128.97 40.296C129.226 40.5093 129.524 40.616 129.866 40.616H146.89ZM50.64 58.36H38.608V107H50.64V86.456H55.44V76.856H50.64V58.36ZM6.48 105.08C11.728 105.08 16.3573 103.587 20.368 100.6C24.4213 97.6133 27.5573 93.368 29.776 87.864C32.0373 82.3173 33.168 75.8533 33.168 68.472V58.872H5.84V68.472H21.136C21.136 75.0853 20.2827 80.4187 18.576 84.472C16.8693 88.4827 14.8 91.32 12.368 92.984C9.936 94.648 7.54667 95.48 5.2 95.48L6.48 105.08ZM92.1735 58.36V107H104.206V58.36H92.1735ZM73.6135 58.872C68.9202 58.872 65.3575 60.1093 62.9255 62.584C60.4935 65.0587 59.2775 68.6853 59.2775 73.464V90.488C59.2775 95.2667 60.4935 98.8933 62.9255 101.368C65.3575 103.843 68.9202 105.08 73.6135 105.08C78.3068 105.08 81.8695 103.843 84.3015 101.368C86.7335 98.8933 87.9495 95.2667 87.9495 90.488V73.464C87.9495 68.6853 86.7335 65.0587 84.3015 62.584C81.8695 60.1093 78.3068 58.872 73.6135 58.872ZM73.6135 68.472C75.1922 68.472 75.9815 69.2827 75.9815 70.904V93.048C75.9815 94.6693 75.1922 95.48 73.6135 95.48C72.0348 95.48 71.2455 94.6693 71.2455 93.048V70.904C71.2455 69.2827 72.0348 68.472 73.6135 68.472ZM125.215 77.496V68.472H156.895V58.872H113.183V87.096H156.895V77.496H125.215ZM111.903 95.48V105.08H158.175V95.48H111.903Z" fill="#4E4D4D"/>
</svg>
